<svg width="40" height="40" viewBox="0 0 40 40" fill="none" xmlns="http://www.w3.org/2000/svg">
<path d="M15.9502 23.4021C15.6199 23.4296 15.3746 23.7196 15.4021 24.0498C15.4296 24.3801 15.7196 24.6254 16.0498 24.5979L16 24L15.9502 23.4021ZM24.7201 23.2733L24.6703 22.6754L24.6703 22.6754L24.7201 23.2733ZM28.3635 19.7289L28.9598 19.7952L28.9598 19.7952L28.3635 19.7289ZM29.5963 14.0663C29.6329 13.7369 29.3956 13.4403 29.0663 13.4037C28.7369 13.3671 28.4403 13.6044 28.4037 13.9337L29 14L29.5963 14.0663ZM14 13.4C13.6686 13.4 13.4 13.6686 13.4 14C13.4 14.3314 13.6686 14.6 14 14.6V14V13.4ZM16.5 14.6C16.8314 14.6 17.1 14.3314 17.1 14C17.1 13.6686 16.8314 13.4 16.5 13.4V14V14.6ZM30 14.6C30.3314 14.6 30.6 14.3314 30.6 14C30.6 13.6686 30.3314 13.4 30 13.4V14V14.6ZM26.5 13.4C26.1686 13.4 25.9 13.6686 25.9 14C25.9 14.3314 26.1686 14.6 26.5 14.6V14V13.4ZM19.4303 16.0818C19.1993 15.8442 18.8194 15.8388 18.5818 16.0697C18.3442 16.3007 18.3388 16.6806 18.5697 16.9182L19 16.5L19.4303 16.0818ZM24.4303 16.9182C24.6612 16.6806 24.6558 16.3007 24.4182 16.0697C24.1806 15.8388 23.8007 15.8442 23.5697 16.0818L24 16.5L24.4303 16.9182ZM22.1 11C22.1 10.6686 21.8314 10.4 21.5 10.4C21.1686 10.4 20.9 10.6686 20.9 11H21.5H22.1ZM10 9.4C9.66863 9.4 9.4 9.66863 9.4 10C9.4 10.3314 9.66863 10.6 10 10.6V10V9.4ZM12.9633 11.5149L12.3822 11.6645V11.6645L12.9633 11.5149ZM15.9385 23.0765L16.5196 22.927L16.5196 22.927L15.9385 23.0765ZM15.5882 24.7616L16.0632 25.1283L16.0632 25.1282L15.5882 24.7616ZM14.1572 25.6333C13.9547 25.8956 14.0032 26.2724 14.2655 26.4749C14.5278 26.6774 14.9046 26.629 15.1071 26.3667L14.6321 26L14.1572 25.6333ZM16 24L16.0498 24.5979L24.7699 23.8712L24.7201 23.2733L24.6703 22.6754L15.9502 23.4021L16 24ZM24.7201 23.2733L24.7699 23.8712C26.128 23.7581 27.1689 23.5484 27.87 22.8663C28.5711 22.1842 28.8093 21.1496 28.9598 19.7952L28.3635 19.7289L27.7672 19.6626C27.6153 21.0293 27.3961 21.6532 27.0332 22.0062C26.6703 22.3592 26.0407 22.5612 24.6703 22.6754L24.7201 23.2733ZM28.3635 19.7289L28.9598 19.7952L29.5963 14.0663L29 14L28.4037 13.9337L27.7672 19.6626L28.3635 19.7289ZM14 14V14.6H16.5V14V13.4H14V14ZM30 14V13.4H26.5V14V14.6H30V14ZM19 16.5L18.5697 16.9182C18.6653 17.0165 18.8166 17.2058 19.0277 17.4746C19.2281 17.7297 19.4672 18.0363 19.714 18.3275C19.9585 18.6161 20.2279 18.9106 20.4941 19.1373C20.6274 19.2508 20.7739 19.3596 20.9286 19.4423C21.0785 19.5225 21.2759 19.6 21.5 19.6V19V18.4C21.5491 18.4 21.5524 18.4151 21.4948 18.3843C21.442 18.356 21.3676 18.305 21.2721 18.2237C21.0807 18.0606 20.861 17.8249 20.6295 17.5517C20.4002 17.2812 20.1764 16.9944 19.9714 16.7333C19.777 16.4859 19.5805 16.2364 19.4303 16.0818L19 16.5ZM24 16.5L23.5697 16.0818C23.4195 16.2364 23.223 16.4859 23.0286 16.7333C22.8236 16.9944 22.5998 17.2812 22.3705 17.5517C22.139 17.8249 21.9193 18.0606 21.7279 18.2237C21.6324 18.305 21.558 18.356 21.5052 18.3843C21.4476 18.4151 21.4509 18.4 21.5 18.4V19V19.6C21.7241 19.6 21.9215 19.5225 22.0714 19.4423C22.2261 19.3596 22.3726 19.2508 22.5059 19.1373C22.7721 18.9106 23.0415 18.6161 23.286 18.3275C23.5328 18.0363 23.7719 17.7297 23.9723 17.4746C24.1834 17.2058 24.3347 17.0165 24.4303 16.9182L24 16.5ZM21.5 19H22.1V11H21.5H20.9V19H21.5ZM16 28H15.4C15.4 28.7732 14.7732 29.4 14 29.4V30V30.6C15.4359 30.6 16.6 29.4359 16.6 28H16ZM14 30V29.4C13.2268 29.4 12.6 28.7732 12.6 28H12H11.4C11.4 29.4359 12.5641 30.6 14 30.6V30ZM12 28H12.6C12.6 27.2268 13.2268 26.6 14 26.6V26V25.4C12.5641 25.4 11.4 26.5641 11.4 28H12ZM14 26V26.6C14.7732 26.6 15.4 27.2268 15.4 28H16H16.6C16.6 26.5641 15.4359 25.4 14 25.4V26ZM27 28H26.4C26.4 28.7732 25.7732 29.4 25 29.4V30V30.6C26.4359 30.6 27.6 29.4359 27.6 28H27ZM25 30V29.4C24.2268 29.4 23.6 28.7732 23.6 28H23H22.4C22.4 29.4359 23.5641 30.6 25 30.6V30ZM23 28H23.6C23.6 27.2268 24.2268 26.6 25 26.6V26V25.4C23.5641 25.4 22.4 26.5641 22.4 28H23ZM25 26V26.6C25.7732 26.6 26.4 27.2268 26.4 28H27H27.6C27.6 26.5641 26.4359 25.4 25 25.4V26ZM16 28V28.6H23V28V27.4H16V28ZM10 10V10.6H10.966V10V9.4H10V10ZM10.966 10V10.6C11.6476 10.6 12.2239 11.0495 12.3822 11.6645L12.9633 11.5149L13.5443 11.3654C13.2443 10.1997 12.1737 9.4 10.966 9.4V10ZM12.9633 11.5149L12.3822 11.6645L15.3575 23.226L15.9385 23.0765L16.5196 22.927L13.5443 11.3654L12.9633 11.5149ZM15.9385 23.0765L15.3574 23.226C15.4612 23.6292 15.3734 24.058 15.1133 24.395L15.5882 24.7616L16.0632 25.1282C16.547 24.5014 16.7165 23.6924 16.5196 22.927L15.9385 23.0765ZM15.5882 24.7616L15.1133 24.3949L14.1572 25.6333L14.6321 26L15.1071 26.3667L16.0632 25.1283L15.5882 24.7616Z" fill="white"/>
</svg>
