<svg width="94" height="48" viewBox="0 0 94 48" fill="none" xmlns="http://www.w3.org/2000/svg">
<path d="M0 16.0388C0 16.0388 13.2537 8.97313 24.2149 7.57612C39.3403 5.65075 39.5642 7.24478 50.0149 7.30746C60.4567 7.37015 79.5403 0 79.5403 0C79.5403 0 75.7791 3.94925 68.6149 11.1761C61.4507 18.4119 57.3582 19.7373 57.3582 19.7373C57.3582 19.7373 59.1403 20.9284 69.0537 21.3134C81.1075 21.7881 93.994 18.7791 93.994 18.7791C93.994 18.7791 82.003 30.797 64.2985 36.2507C47.2388 41.5075 44.409 39.4299 25.8716 40.7642C11.0149 41.8388 6.29552 48 6.29552 48L0 16.0478V16.0388Z" fill="#9D0F05"/>
<path d="M34.5121 14.5435C39.4195 18.8152 36.5986 24.7793 35.936 26.0241C35.1927 25.2987 34.2882 25.057 33.1061 25.0301C35.1389 21.3764 34.4942 17.642 31.6912 14.5525C32.6136 14.5346 33.536 14.5256 34.4583 14.5525H34.521L34.5121 14.5435ZM28.3957 25.5316C27.2404 25.7913 26.0942 26.1316 24.9837 26.4808C25.6016 25.5674 26.6494 23.5167 26.3718 20.3107C26.1121 17.3196 24.4822 15.4301 23.7031 14.6958C24.3927 14.6868 25.6822 14.6599 27.133 14.6331C31.2166 18.5196 29.3897 23.5256 28.3867 25.5316" fill="white"/>
<path d="M22.5845 30.1697C22.5845 30.1697 22.8532 31.6474 23.892 32.9279C23.7756 32.8921 23.6591 32.8563 23.5427 32.8205C23.1845 32.7041 22.8442 32.5877 22.5129 32.4802C21.9845 31.3966 21.6084 30.1071 21.6084 30.1071L22.5845 30.1608V30.1697Z" fill="white"/>
<path d="M23.1582 17.203L23.3373 19.4418L23.6687 19.7821L23.3731 17.1851L23.1582 17.203Z" fill="white"/>
<path d="M24.3413 35.409C25.7025 36.1075 25.6667 36.0717 27.207 36.3672C31.0488 37.1105 34.2816 34.2269 37.8726 34.3881C38.5085 34.415 39.0279 34.4777 39.4756 34.5583C39.4756 34.5583 37.2906 34.7195 32.804 36.7792C28.0488 38.9553 24.3413 35.4001 24.3413 35.4001" fill="white"/>
<path d="M17.2917 33.1072C20.0588 32.5072 22.0559 33.6982 24.5902 34.5579C27.3663 35.4982 29.3364 35.4535 32.1036 34.4773C34.2976 33.7072 36.4021 32.6594 38.7932 32.8117C41.3275 32.9818 42.9842 32.5341 44.4618 31.2445C42.6529 31.8176 42.1782 31.8624 41.3096 31.8982C40.3245 31.943 39.5096 31.7818 37.8349 31.8535C34.2708 32.0057 31.217 34.2803 27.5096 34.0475C25.6558 33.9311 24.4379 33.6355 23.426 33.3132C21.2678 32.6326 19.4767 31.7818 17.2827 33.0982" fill="white"/>
<path d="M25.5401 24.4388C24.0266 24.1791 22.5849 25.1015 21.4296 26.0687C22.2983 22.8985 21.6445 20.2299 20.5251 17.2299L25.9341 22.603C25.8625 23.2299 25.7281 23.8478 25.5311 24.4388" fill="white"/>
<path d="M32.6334 25.0299C32.2394 25.0299 31.8185 25.0657 31.3618 25.1015L31.7827 29.0508L34.8901 28.7821L36.1528 26.8657L38.7946 26.1493L38.5618 23.4896C38.0692 23.6239 37.6036 23.8209 37.1827 24.0985C37.3797 23.4717 37.5319 22.8448 37.6304 22.2269C37.8454 20.8299 37.8185 19.209 37.2095 17.615H38.0603L37.9618 16.5135L37.4513 16.5582L37.0662 15.5463L37.8722 15.4747L37.6752 13.1911L37.8901 13.1732L37.9439 13.6568C38.0692 13.612 38.3827 13.5135 38.7319 13.4956C39.1439 13.4777 39.3767 13.8806 40.4424 13.7732C41.1857 13.6926 41.714 13.7732 41.6603 13.7911C41.526 13.8448 41.4274 13.9433 41.0065 13.9702C40.6931 13.9971 40.6215 14.1224 40.6304 14.1224C40.9259 14.0956 41.311 14.2747 41.5976 14.2568C41.5349 14.3105 41.3648 14.4 40.8901 14.4359C40.4782 14.4627 40.2633 14.7045 39.6095 14.5971C39.3588 14.5523 39.2782 14.4359 38.8752 14.418C38.4901 14.4 38.4274 14.4627 38.0424 14.5523L38.1498 15.4388L39.0185 15.3582L38.7498 16.4239L38.2662 16.4687L38.3916 17.5881L40.4245 17.5702C40.4245 17.5702 40.4692 17.615 40.505 17.6418C42.4036 19.3523 42.2245 22.0209 41.1319 24.1971C40.7916 23.5433 40.1647 23.2657 39.4125 23.3284C39.2961 23.3374 39.1707 23.3553 39.0543 23.3732L39.3588 25.9791L41.8662 25.2985L41.1677 27.5194C41.1677 27.5194 40.0573 27.7612 39.6006 28.4956C39.1439 29.212 39.3677 30.5015 38.7677 31.3075C38.4812 31.3075 38.1677 31.3075 37.8095 31.3254C34.2633 31.4777 31.1558 33.7433 27.5289 33.5194C26.3737 33.4478 25.4782 33.3045 24.726 33.1344C23.2573 31.8359 22.9439 29.7582 22.9439 29.7582L20.9827 29.5971L19.8901 27.0359L23.9469 27.3045L23.7677 25.0478C23.8304 25.0209 23.8931 24.9941 24.0006 24.9582C24.108 24.9135 24.1976 24.8866 24.2603 24.8687L24.5468 27.3403L25.9886 27.4388L27.7528 29.3732L31.0842 29.0777L30.7618 25.1194C30.1349 25.1732 29.508 25.2717 28.8812 25.3971C29.2304 24.6448 29.6424 23.5791 29.8842 22.3612C30.3319 20.0418 30.1349 17.1224 27.6901 14.5971L28.8454 14.5791C29.1946 14.5791 29.5439 14.5702 29.8931 14.5612L29.7946 13.3612L29.1409 13.415L28.6842 12.215L29.6961 12.1254L29.4901 9.55526L29.7051 9.53735L29.7588 10.0478C29.92 9.98511 30.2961 9.8687 30.717 9.85974C31.2274 9.84183 31.514 10.3344 32.8215 10.2C33.7349 10.1105 34.3886 10.2 34.326 10.218C34.1558 10.2806 34.0394 10.3971 33.52 10.4418C33.1349 10.4687 33.0543 10.6388 33.0633 10.6388C33.4215 10.603 33.8961 10.8269 34.2633 10.809C34.1827 10.8806 33.9677 10.9881 33.3946 11.0239C32.8842 11.0597 32.6155 11.3463 31.8185 11.2209C31.514 11.1672 31.4155 11.0239 30.914 10.9971C30.4394 10.9702 30.3677 11.0508 29.8842 11.1672L29.9827 12.1075L31.0215 12.018L30.708 13.2896L30.117 13.3433L30.2424 14.5612L31.1379 14.5433C34.0663 17.5881 34.7737 21.2956 32.6782 24.9403L32.6334 25.0209V25.0299ZM30.3857 30.6806C30.2961 30.1612 30.0006 29.812 29.92 29.8209C29.8394 29.8388 29.6961 30.3224 29.7856 30.8418C29.8752 31.3612 30.1618 31.7105 30.2513 31.7015C30.3319 31.6836 30.4752 31.2 30.3857 30.6806ZM29.2483 30.815C29.2125 30.2866 28.9618 29.9194 28.8812 29.9194C28.8006 29.9194 28.5767 30.3314 28.6215 30.8597C28.6573 31.3881 28.9349 31.8269 29.0155 31.8269C29.105 31.8269 29.2931 31.3433 29.2483 30.815ZM28.0752 30.9135C28.0752 30.3851 27.8692 29.9911 27.7886 29.9911C27.6991 29.9911 27.4752 30.4657 27.4662 30.9941C27.4662 31.5224 27.6722 31.9165 27.7528 31.9165C27.8424 31.9165 28.0663 31.4418 28.0752 30.9135Z" fill="white"/>
</svg>
