<svg width="207" height="183" viewBox="0 0 207 183" fill="none" xmlns="http://www.w3.org/2000/svg">
<path opacity="0.2" d="M49.4189 170.231C58.0163 193.874 75.315 212.75 98.1258 223.393C110.745 229.286 124.126 232.268 137.871 232.268C148.843 232.268 159.711 230.344 170.146 226.53C218.94 208.764 244.195 154.597 226.445 105.786C217.83 82.1431 200.532 63.267 177.738 52.6243C165.119 46.7309 151.738 43.7495 137.993 43.7495C127.021 43.7495 116.17 45.6736 105.718 49.4869C56.9069 67.2537 31.6521 121.421 49.4189 170.231ZM137.993 47.2162C151.062 47.2162 164.079 50.0762 176.282 55.7616C198.244 66.0057 214.901 84.1884 223.204 106.965C240.312 153.973 215.993 206.146 168.985 223.272C158.862 226.964 148.358 228.801 137.889 228.801C124.819 228.801 111.802 225.941 99.5991 220.256C77.6377 210.012 60.9803 191.829 52.6776 169.053C35.5695 122.045 59.8883 69.871 106.897 52.7456C117.019 49.0536 127.523 47.2162 137.993 47.2162ZM91.1058 227.952L92.2844 225.716L96.4965 227.934L95.3178 230.17L91.1058 227.952ZM85.4377 27.4215L84.5017 24.9081L91.2964 22.3774L97.9525 27.9935C98.0565 28.0975 98.8711 28.7908 99.6685 29.4841L103.083 32.5522C103.655 33.0895 104.227 33.6095 104.799 34.1122L104.123 32.2748L103.568 30.7668L103.014 29.2588L102.459 27.7681L100.292 21.9094L97.7445 22.8454L96.8085 20.3321L104.539 17.4548L105.475 19.9681L102.962 20.9041L109.514 38.5669L105.857 39.9189L98.6458 33.7482C98.3858 33.5402 97.7271 32.9508 96.8085 32.1362C95.0058 30.5068 93.1684 28.9121 91.2791 27.2308L92.0071 29.1895L92.6138 30.8188L93.2204 32.4482L93.8271 34.0775L96.2538 40.6122L98.7845 39.6762L99.7205 42.1895L91.9898 45.0669L91.0538 42.5535L93.5671 41.6175L87.9511 26.4681L85.4377 27.4041V27.4215ZM114.506 17.8881L114.211 15.2361L123.675 14.2134L123.97 16.8827L121.283 17.1774L122.341 26.9881C122.572 29.149 122.803 30.4664 123.034 30.9402C123.71 32.4308 125.253 33.1588 127.177 32.9508C129.291 32.7255 130.747 31.4948 131.007 29.7095C131.094 29.0855 131.111 28.8948 130.851 26.4508L129.742 16.2587L127.055 16.5534L126.761 13.9014L135.029 13.0001L135.323 15.6521L132.654 15.9467L133.763 26.2081C134.006 28.5135 133.919 30.2815 133.486 31.4255C132.567 33.9562 130.141 35.6202 127.003 35.9495C123.537 36.3308 120.607 34.9788 119.29 32.4308C118.718 31.3215 118.579 30.6281 118.215 27.3001L117.175 17.6108L114.506 17.9054V17.8881ZM238.128 68.103L236.741 65.815L239.029 64.4283L243.969 72.5577L241.681 73.9444L240.277 71.6217L231.836 76.735C229.975 77.8675 228.878 78.6302 228.542 79.0231C227.485 80.2711 227.468 81.9697 228.473 83.6337C229.582 85.4537 231.298 86.2511 233.032 85.7311C233.638 85.5577 233.829 85.4711 235.926 84.2057L244.697 78.8844L243.293 76.5617L245.581 75.175L249.897 82.2991L247.609 83.6857L246.223 81.3977L237.4 86.7538C235.407 87.9671 233.777 88.6084 232.546 88.7124C229.86 88.9378 227.329 87.4644 225.7 84.7604C223.897 81.7791 223.862 78.555 225.613 76.2844C226.376 75.2964 226.948 74.8804 229.808 73.1297L238.145 68.0857L238.128 68.103ZM191.761 50.1282L184.412 45.4656L185.85 43.2122L188.104 44.6509L196.753 31.0095L194.5 29.5708L195.938 27.3175L203.426 32.0668L201.988 34.3202L199.994 33.0548L195.938 39.4509L205.94 36.8162L204.414 35.8455L205.853 33.5922L212.717 37.9428L211.278 40.1962L208.938 38.7055L201.918 40.7509L201.329 53.0056L203.478 54.3749L202.04 56.6283L194.5 51.8442L195.938 49.5736L197.308 50.4402L198.469 41.3749L193.72 42.6055L191.206 46.5749L193.217 47.8576L191.778 50.1109L191.761 50.1282ZM217.934 50.7869L215.906 48.7242L220.465 44.2522L233.292 57.3216L228.733 61.7936L226.705 59.7136L229.218 57.2523L226.306 54.2883L214.918 65.4683L216.79 67.375L214.884 69.247L208.228 62.4696L210.134 60.5976L212.024 62.5216L223.412 51.3416L220.448 48.3256L217.934 50.7869ZM68.5203 57.3389L70.0457 59.5403L76.6844 54.9643L75.159 52.7629L73.2523 54.0803L72.091 50.2496L77.8284 46.2976L80.9657 48.7589L79.059 50.0762L80.5844 52.2776L88.2978 46.9389L86.7724 44.7375L84.4844 46.3149L68.7803 34.1988L65.1403 36.7122L70.7563 55.7963L68.503 57.3563L68.5203 57.3389ZM69.9243 43.1949C69.2483 41.0282 68.9883 40.1962 68.243 38.1682C69.7683 39.5895 70.5657 40.2829 72.195 41.6175L75.5577 44.4429L71.155 47.4762L69.9243 43.1949ZM256.033 126.118C256.207 127.869 254.872 129.481 253.104 129.671C251.284 129.862 249.672 128.545 249.481 126.742C249.291 124.939 250.608 123.31 252.411 123.119C254.248 122.929 255.843 124.246 256.033 126.118ZM236.776 99.5805L235.996 97.0151L233.43 97.7951L236.048 106.41L238.613 105.63L237.937 103.377L243.865 101.574L244.923 105.058L237.331 110.57L239.081 116.377L241.647 115.597L240.884 113.066L246.552 108.282C248.199 110.171 250.365 110.761 252.844 110.015C255.288 109.27 256.865 107.623 257.281 105.335C257.576 103.862 257.333 102.423 256.241 98.7831L254.057 91.5551L251.492 92.3351L252.272 94.9005L236.81 99.5805H236.776ZM253.693 100.36C254.179 101.972 254.317 102.735 254.248 103.394C254.109 104.59 253.208 105.491 251.804 105.925C250.625 106.271 249.568 106.133 248.771 105.491C248.112 104.989 247.748 104.243 247.141 102.215L246.743 100.88L253.26 98.9045L253.693 100.36ZM132.255 168.775C132.914 171.115 132.533 173.49 132.151 173.594C131.77 173.698 130.331 172.277 129.673 169.937C129.014 167.597 129.395 165.222 129.777 165.118C130.158 165.014 131.597 166.435 132.255 168.775ZM137.265 166.782C138.114 169.035 137.923 171.375 137.559 171.531C137.195 171.67 135.41 170.076 134.561 167.822C133.711 165.569 134.127 163.506 134.474 163.367C134.838 163.229 136.415 164.546 137.265 166.782ZM167.321 39.1735L168.153 36.6255L165.951 35.8975L168.309 32.6735L174.913 34.8575L174.844 38.8442L172.642 38.1162L171.81 40.6642L180.72 43.6109L181.552 41.0629L178.917 40.1962L179.125 20.3668L174.93 18.9801L163.091 34.9615L160.491 34.0948L159.659 36.6428L167.321 39.1735ZM172.642 26.6935C173.96 24.8561 174.462 24.1455 175.641 22.3254C175.433 24.3881 175.346 25.4628 175.26 27.5601L175.034 31.9282L169.956 30.2468L172.625 26.6761L172.642 26.6935ZM142.083 164.737C143.158 166.886 143.193 169.209 142.846 169.382C142.499 169.555 140.766 168.394 139.691 166.245C138.599 164.095 138.582 161.773 138.929 161.599C139.275 161.426 140.991 162.587 142.083 164.737ZM152.223 35.8802L142.066 34.7015L142.378 32.0495L145.03 32.3615L146.885 16.3107L144.233 15.9987L144.545 13.3467L160.231 15.1667L159.59 20.6441L156.834 20.3321L157.129 17.6974L150.941 16.9867L150.247 22.9148L156.817 23.6774L156.487 26.5201L149.918 25.7575L149.103 32.8295L152.501 33.2282L152.189 35.8802H152.223ZM58.3976 155.879C68.2256 200.028 111.975 227.83 156.123 218.002C200.272 208.174 228.074 164.425 218.246 120.277C208.418 76.1284 164.669 48.3256 120.521 58.1536C76.3897 67.9817 48.5696 111.731 58.3976 155.879ZM160.717 188.276C142.725 204.084 121.786 193.372 121.786 193.372C128.65 194.637 128.477 194.533 135.635 193.805C153.454 192.002 163.837 175.12 179.801 171.098C182.644 170.387 184.966 169.971 187.046 169.746C187.046 169.746 177.704 173.334 160.717 188.276ZM204.57 148.669C199.786 156.243 193.096 160.386 181.76 163.003C171.1 165.447 163.213 172.814 154.633 179.089C143.765 187.01 135.167 189.766 121.769 189.316C109.514 188.9 99.2005 186.3 87.8471 192.574C95.7165 183.925 104.678 185.294 115.043 185.416C119.897 185.468 125.617 185.173 133.919 183.249C150.455 179.401 160.855 165.413 176.3 160.057C183.562 157.526 187.341 157.179 191.588 155.689C195.366 154.371 197.394 153.557 204.553 148.669H204.57ZM102.858 173.785L107.191 172.727C107.191 172.727 110.311 178.864 116.569 183.11C115.997 183.11 115.442 183.11 114.887 183.11C113.154 183.093 111.525 183.024 109.93 182.989C106.203 178.933 102.84 173.785 102.84 173.785H102.858ZM138.669 88.6084L138.946 88.5391C166.09 100.811 161.566 130.659 160.266 136.986C156.037 134.802 151.755 134.923 146.555 136.362C150.663 117.659 142.933 102.128 126.553 92.2658C130.574 90.9658 134.613 89.7351 138.669 88.6084ZM116.794 89.6311L114.003 90.7404L110.398 86.0604L114.731 84.3444L110.433 73.3377L111.334 72.9737L112.235 75.1404C112.877 74.655 114.35 73.6497 116.187 73.043C118.406 72.2977 120.313 74.0657 125.842 71.7777C129.742 70.1657 132.706 69.7323 132.463 69.8883C131.805 70.391 131.441 71.067 129.222 71.9164C127.558 72.5577 127.419 73.3897 127.471 73.3897C129.014 72.7657 131.371 73.1124 132.931 72.5404C132.671 72.9564 131.891 73.7017 129.413 74.6377C127.211 75.4524 126.431 77.099 122.739 77.567C121.318 77.7404 120.711 77.255 118.493 77.7924C116.378 78.295 116.17 78.763 114.211 79.8897L115.875 83.8764L120.313 82.1084L120.607 88.0884L118.077 89.1111L120.261 94.2938L124.143 93.0285C140.991 102.527 148.947 117.833 144.579 136.57L144.475 136.969C142.759 137.523 140.939 138.199 138.998 138.945L146.035 155.706L159.295 150.437L162.329 140.383L172.954 133.779L168.447 122.426C166.471 123.639 164.703 125.147 163.213 126.915C163.265 123.917 163.109 120.953 162.71 118.11C161.809 111.679 159.59 104.642 154.789 98.4538L158.498 97.3098L156.643 92.6471L154.459 93.5138L151.426 89.5964L154.875 88.2271L151.01 78.4684L151.911 78.1044L152.795 80.1671C153.298 79.7857 154.511 78.9537 156.037 78.4337C157.839 77.827 159.382 79.2484 163.889 77.411C167.043 76.0937 169.453 75.7644 169.262 75.8857C168.725 76.2844 168.43 76.8564 166.645 77.5497C165.293 78.0697 165.171 78.7457 165.223 78.7284C166.489 78.2257 168.395 78.5031 169.661 78.0524C169.453 78.3817 168.811 79.0057 166.801 79.7511C165.015 80.4271 164.391 81.7444 161.393 82.1431C160.231 82.2817 159.746 81.8831 157.943 82.3164C156.21 82.7324 156.054 83.1137 154.459 84.0151L156.071 87.7591L159.781 86.2858L160.023 91.3124L157.961 92.1444L159.989 96.8591L168.863 94.1031C168.985 94.1551 169.123 94.2245 169.297 94.2938C179.87 99.3032 182.592 111.246 180.685 122.218C178.328 119.791 175.208 119.41 172.018 120.675C171.516 120.883 171.013 121.091 170.527 121.334L175.277 132.375L185.365 126.101L185.244 136.761C185.244 136.761 180.702 139.274 179.645 143.122C178.605 146.866 181.274 152.222 179.68 156.555C178.414 156.919 177.045 157.37 175.502 157.907C160.127 163.246 149.519 177.269 133.313 181.048C128.182 182.244 124.057 182.798 120.538 183.024C112.391 179.28 108.301 170.578 108.301 170.578L99.4778 172.45L91.3311 162.674L109.462 158.531L105.718 148.877C105.943 148.686 106.203 148.478 106.619 148.183C107.053 147.854 107.399 147.611 107.642 147.455L112.166 157.925L118.631 156.451L128.927 162.622L143.141 156.971L136.502 140.037C133.833 141.111 131.198 142.359 128.633 143.729C129.187 139.95 129.603 134.767 129.031 129.099C127.939 118.335 123.259 105.786 109.219 97.9338L114.263 96.3218C115.789 95.8365 117.314 95.3511 118.822 94.8485L116.811 89.7004L116.794 89.6311ZM106.723 98.6271C129.742 110.31 128.303 134.629 126.553 144.751C121.821 147.386 117.262 150.402 112.859 153.401C114.385 148.582 116.274 138.217 110.849 124.523C105.77 111.766 96.1325 105.63 91.7644 103.411C94.7631 102.458 100.379 100.655 106.723 98.6271ZM98.2818 125.737L96.3578 124.714L92.6311 115.111L93.5324 114.747L98.2645 125.737H98.2818ZM111.958 135.149C112.461 137.991 112.703 140.869 112.617 143.729C105.649 144.595 100.552 150.523 96.7565 156.278C96.3925 141.233 90.0138 130.399 81.1564 118.717L111.958 135.149ZM94.9018 231.956C89.1298 229.269 83.4444 231.748 80.411 238.283C77.187 245.199 78.8164 251.04 84.7617 253.813C90.5684 256.517 96.1845 254.004 99.3045 247.296C102.442 240.57 100.743 234.694 94.9018 231.973V231.956ZM95.0405 245.285C92.5791 250.555 89.4244 252.565 86.0271 250.988C82.5951 249.393 82.1271 245.736 84.6577 240.328C87.0497 235.18 90.2391 233.186 93.6018 234.746C96.9991 236.324 97.4845 240.033 95.0405 245.285ZM98.5765 229.026L102.771 231.245L101.592 233.481L97.3978 231.262L98.5765 229.026ZM80.6711 225.022L76.3204 230.326L73.911 228.35L76.303 225.421L72.8363 222.596L61.9683 235.873L64.187 237.693L62.367 239.929L54.4629 233.446L56.2829 231.228L58.5363 233.065L69.4043 219.788L65.8856 216.91L63.4936 219.84L61.0843 217.864L65.435 212.56L80.6711 225.022ZM226.064 219.354L230.796 224.277L218.316 236.254L216.322 234.174L218.402 232.181L206.373 219.649L204.293 221.642L202.3 219.562L214.554 207.793L218.662 212.074L216.513 214.137L214.537 212.092L209.701 216.72L214.138 221.348L219.269 216.425L221.401 218.661L216.27 223.584L221.436 228.957L226.497 224.104L223.897 221.4L226.046 219.337L226.064 219.354ZM180.512 250.641L182.505 257.176L165.951 262.22L165.119 259.464L167.875 258.632L162.814 242.009L160.058 242.841L159.226 240.085L175.485 235.128L177.218 240.796L174.358 241.662L173.526 238.941L167.13 240.883L169.002 247.019L175.797 244.939L176.698 247.885L169.903 249.948L172.07 257.072L178.778 255.027L177.686 251.439L180.546 250.572L180.512 250.641ZM35.1362 70.9457L33.0735 69.247L38.5162 62.6256L45.9349 65.5203C46.6975 65.815 47.2522 66.0577 48.8296 66.7683L51.6896 68.0683C52.0882 68.2417 52.7642 68.5883 54.1163 69.2297C51.8109 66.1963 50.9269 64.8963 48.9336 61.6203L44.8949 54.8603L50.2336 48.3602L52.2962 50.0589L50.5976 52.1216L63.0603 62.383L64.759 60.3203L66.8216 62.019L60.8416 69.2817L58.7789 67.583L60.4776 65.5203L54.5323 60.6323C54.3069 60.4416 52.8336 59.1936 50.1469 56.9403L48.3962 55.4669C50.1469 58.2403 51.9149 61.031 53.6483 63.839L58.7616 71.8297L56.8896 74.1004L48.2922 70.651C45.2762 69.455 42.2949 68.259 39.2962 67.0803L41.0122 68.5017L42.4509 69.6977L43.9242 70.911L45.3629 72.107L51.1522 76.8737L52.8509 74.811L54.9136 76.5097L49.6442 82.9057L47.5816 81.2071L49.2802 79.1444L36.8175 68.883L35.1188 70.9457H35.1362ZM124.525 242.217C123.259 241.212 121.769 240.727 117.747 239.999L109.774 238.542L109.254 241.368L112.079 241.888L108.959 258.979L106.134 258.459L105.614 261.284L115.13 263.017L115.65 260.192L113.154 259.741L114.35 253.189L118.198 253.9L119.723 263.867L126.137 265.028L126.657 262.203L123.866 261.7L122.081 253.935C124.698 253.276 126.327 251.508 126.83 248.769C127.315 246.083 126.518 243.743 124.542 242.217H124.525ZM122.393 247.712C122.15 249.012 121.491 249.948 120.486 250.399C119.671 250.78 118.805 250.763 116.551 250.347L115.078 250.087L116.395 242.893L118.007 243.188C119.775 243.517 120.573 243.76 121.179 244.159C122.254 244.887 122.67 246.187 122.393 247.729V247.712ZM198.885 234.885C200.601 232.805 200.792 231.002 199.509 228.818C198.382 226.894 196.597 225.82 194.586 225.958C193.044 226.062 192.09 226.444 187.757 228.974L181.205 232.805L182.661 235.284L185.14 233.828L193.893 248.839L191.414 250.295L192.87 252.773L199.301 249.012C203.322 246.672 204.501 245.823 205.42 244.557C207.032 242.373 207.17 239.721 205.818 237.381C204.328 234.833 201.936 233.949 198.902 234.868L198.885 234.885ZM192.298 237.329L189.057 231.782L190.53 230.933C191.848 230.17 192.558 229.876 193.2 229.806C194.274 229.702 195.245 230.292 195.921 231.436C197.1 233.446 196.493 234.885 193.789 236.445L192.298 237.312V237.329ZM202.126 243.032C201.745 243.812 200.965 244.471 199.024 245.615L197.62 246.429L193.858 239.981L195.349 239.114C197.169 238.04 198.14 237.693 198.954 237.728C200.081 237.797 201.121 238.473 201.797 239.634C202.473 240.796 202.594 242.026 202.126 243.014V243.032ZM247.731 194.966L250.175 196.492L245.096 204.638L242.652 203.113L243.571 201.64L233.812 200.444L235.164 205.54L239.462 208.226L240.814 206.042L243.259 207.568L238.301 215.506L235.857 213.981L237.382 211.537L222.649 202.333L221.124 204.777L218.68 203.252L223.724 195.157L226.168 196.682L224.833 198.832L231.749 203.148L228.837 192.418L227.814 194.065L225.37 192.54L229.998 185.121L232.442 186.646L230.865 189.177L233.118 196.7L246.309 197.254L247.765 194.932L247.731 194.966ZM50.5456 207.741C51.4469 211.208 51.7589 213.132 51.5856 214.484C51.3949 216.269 50.5282 217.69 48.8989 218.938C45.6229 221.504 41.7055 220.932 39.0188 217.482C37.5282 215.558 37.0602 213.946 37.3722 211.641L35.8988 212.785L34.4082 210.878L40.5442 206.112L42.0349 208.018C39.7295 209.856 39.4348 212.802 41.3069 215.212C42.6069 216.876 44.4269 217.188 45.9869 215.974C46.7496 215.385 47.2349 214.518 47.2176 213.704C47.2291 213.161 46.9056 211.537 46.2469 208.833C45.5535 206.025 45.4669 205.176 45.6055 203.893C45.7789 202.316 46.5935 200.877 47.9109 199.854C50.7882 197.618 54.4803 198.294 57.0109 201.553C58.2936 203.2 58.7963 204.812 58.6229 206.718L59.8016 205.8L61.275 207.689L55.9883 211.797L54.5323 209.942C56.4216 208.122 56.5776 206.077 55.0003 204.049C53.7696 202.454 52.1576 202.038 50.9269 202.992C49.8349 203.841 49.7482 204.742 50.5629 207.724L50.5456 207.741ZM31.7215 130.209L34.3562 130.677L35.7948 122.755L33.1601 122.287L32.7441 124.575L29.2255 122.686L30.4735 115.839L34.4255 115.337L34.0095 117.625L36.6442 118.11L38.3255 108.889L35.6908 108.403L35.1882 111.125L15.5321 113.673L14.7347 118.023L32.2068 127.522L31.7215 130.226V130.209ZM26.6081 121.386L22.7081 119.237C20.6974 118.179 19.9347 117.781 17.9587 116.862C20.0387 116.775 21.0961 116.706 23.1934 116.498L27.5615 116.117L26.6081 121.386ZM32.5881 151.043L32.7441 153.713L35.4135 153.557L34.8762 144.578L32.2068 144.734L32.3455 147.091L26.1748 147.455L25.9494 143.815L34.6162 140.227L34.2522 134.178L31.5828 134.334L31.7388 136.969L25.1174 140.314C23.9561 138.095 21.9801 137.021 19.3974 137.177C16.8494 137.333 14.9254 138.581 13.9894 140.695C13.3654 142.065 13.2614 143.521 13.4867 147.317L13.9374 154.857L16.6067 154.701L16.4507 152.031L32.5708 151.061L32.5881 151.043ZM16.3294 146.381C16.2254 144.717 16.2774 143.937 16.5027 143.295C16.9187 142.169 18.0107 141.493 19.4494 141.406C20.6801 141.337 21.6681 141.735 22.2921 142.533C22.8121 143.174 22.9854 143.971 23.1241 146.103L23.2108 147.49L16.4161 147.906L16.3294 146.398V146.381ZM37.9788 173.612L38.7242 176.177L41.2895 175.432L39.3482 168.775C38.1348 164.633 37.6322 163.367 36.7135 162.258C35.1015 160.317 32.7441 159.589 30.3348 160.299C27.7001 161.062 26.3654 163.038 26.5215 165.985C25.0308 163.974 23.4534 163.385 21.1828 164.043C19.2067 164.615 17.8201 166.002 17.4907 167.839C17.2307 169.261 17.3694 170.197 18.6867 174.686L20.6628 181.464L23.2281 180.718L22.4828 178.153L37.9962 173.629L37.9788 173.612ZM29.1041 166.557C29.4161 165.551 30.2655 164.771 31.4788 164.425C32.6922 164.078 33.8188 164.251 34.5988 164.893C35.2228 165.413 35.6388 166.262 36.2282 168.29L36.6615 169.746L30.0055 171.688L29.5548 170.145C29.0001 168.255 28.8961 167.319 29.1215 166.574L29.1041 166.557ZM21.0614 172.641C20.6628 171.271 20.5588 170.561 20.6454 169.971C20.8014 168.983 21.5468 168.238 22.7254 167.891C24.8054 167.285 25.9668 168.151 26.7641 170.942L27.2148 172.485L21.4948 174.149L21.0614 172.641ZM21.9801 98.5578L19.5361 97.4831L23.3668 88.7818L25.8108 89.8564L24.7188 92.3351L33.7495 96.3045C35.7371 97.1827 36.9908 97.6391 37.5108 97.6738C39.1402 97.8298 40.5442 96.8591 41.3242 95.0911C42.1909 93.1498 41.8442 91.2778 40.4402 90.1511C39.9375 89.7524 39.7815 89.6484 37.5455 88.6604L28.1681 84.5351L27.0761 87.0138L24.6321 85.9391L27.9775 78.3297L30.4215 79.4044L29.3468 81.8484L38.7935 86.0084C40.9255 86.9444 42.3989 87.9151 43.1789 88.8511C44.9122 90.9138 45.1375 93.8431 43.8722 96.7205C42.4682 99.9098 39.8508 101.782 36.9735 101.643C35.7255 101.591 35.0495 101.366 31.9815 100.014L23.0721 96.0965L21.9974 98.5405L21.9801 98.5578ZM267.525 90.8271C254.924 56.2123 229.6 28.5655 196.216 13.0001C177.721 4.36802 158.151 0 138.01 0C121.942 0 106.047 2.82535 90.7418 8.38937C19.2934 34.4068 -17.6788 113.725 8.32136 185.19C20.9228 219.805 46.2469 247.452 79.631 263.017C98.1258 271.632 117.695 276 137.837 276C153.905 276 169.799 273.175 185.088 267.611C256.553 241.593 293.525 162.275 267.508 90.8098L267.525 90.8271ZM183.909 264.352C168.898 269.812 153.35 272.533 137.837 272.533C118.475 272.533 99.1831 268.287 81.1044 259.863C48.5522 244.679 23.8694 217.742 11.58 183.994C-13.7787 114.331 22.2748 37.0068 91.9378 11.6481C106.949 6.18803 122.497 3.46668 138.01 3.46668C157.371 3.46668 176.681 7.71337 194.742 16.1374C227.294 31.3215 251.977 58.2576 264.267 92.0058C289.625 161.686 253.572 238.993 183.909 264.352ZM253.277 167.787L259.777 169.885L254.491 186.352L251.752 185.468L252.636 182.729L236.1 177.408L235.216 180.146L232.477 179.262L237.677 163.09L243.328 164.91L242.409 167.753L239.705 166.886L237.66 173.265L243.761 175.224L245.928 168.463L248.875 169.417L246.708 176.177L253.797 178.465L255.947 171.791L252.376 170.647L253.295 167.805L253.277 167.787ZM260.54 140.539L253.017 143.157C252.081 140.626 250.14 139.205 247.367 138.997C244.628 138.806 242.409 139.863 241.109 141.995C240.243 143.365 239.931 144.907 239.636 148.981L239.064 157.075L241.941 157.283L242.149 154.406L259.465 155.637L259.257 158.514L262.135 158.722L262.828 149.085L259.951 148.877L259.777 151.407L253.139 150.939L253.416 147.039L263.157 144.439L263.625 137.939L260.748 137.731L260.54 140.557V140.539ZM250.071 149.033L249.967 150.523L242.669 150.003L242.791 148.374C242.912 146.571 243.085 145.757 243.415 145.115C244.021 143.971 245.269 143.399 246.829 143.521C248.147 143.607 249.152 144.179 249.707 145.115C250.175 145.878 250.244 146.745 250.088 149.033H250.071ZM32.3801 192.661C31.5655 191.101 32.2241 189.108 33.8015 188.276C35.4308 187.444 37.4068 188.068 38.2388 189.68C39.0708 191.292 38.4468 193.285 36.8522 194.117C35.2055 194.966 33.2468 194.325 32.3801 192.661ZM154.061 241.177L154.494 248.024L151.374 248.215L151.131 244.436L146.659 244.713L147.734 261.839L150.611 261.665L150.785 264.543L140.575 265.184L140.402 262.307L143.314 262.116L142.239 244.991L137.715 245.285L137.958 249.064L134.838 249.255L134.405 242.408L154.061 241.16V241.177Z" fill="white"/>
</svg>
