<svg width="18" height="18" viewBox="0 0 18 18" fill="none" xmlns="http://www.w3.org/2000/svg">
<path d="M8.53065 2.19088C12.7745 0.744134 14.8963 0.0207641 16.0377 1.16205C17.1789 2.30334 16.4555 4.42526 15.0089 8.66908L14.0236 11.559C12.9126 14.8182 12.3571 16.4478 11.4412 16.5827C11.1951 16.619 10.9403 16.5972 10.6966 16.519C9.79065 16.2281 9.31172 14.5099 8.35385 11.0735C8.1414 10.3113 8.03518 9.93015 7.79323 9.63903C7.723 9.55459 7.64514 9.47672 7.56069 9.4065C7.26958 9.16455 6.88842 9.05832 6.12625 8.84588C2.68985 7.88801 0.971653 7.40908 0.680773 6.50309C0.602568 6.25951 0.580746 6.00466 0.617004 5.75845C0.751866 4.84269 2.38148 4.28715 5.64069 3.17607L8.53065 2.19088Z" stroke="white" stroke-width="1.2"/>
</svg>
